<svg width="23" height="22" viewBox="0 0 23 22" fill="none" xmlns="http://www.w3.org/2000/svg">
<path fill-rule="evenodd" clip-rule="evenodd" d="M8.99996 0.999917C9.00015 0.791366 8.93513 0.587975 8.814 0.418207C8.69287 0.248439 8.52169 0.12079 8.32442 0.0531239C8.12715 -0.0145425 7.91366 -0.0188402 7.71383 0.0408324C7.514 0.100505 7.33783 0.221162 7.20996 0.385917L0.209962 9.38592C0.073407 9.56146 -0.000732422 9.77752 -0.000732422 9.99992C-0.000732422 10.2223 0.073407 10.4384 0.209962 10.6139L7.20996 19.6139C7.33783 19.7787 7.514 19.8993 7.71383 19.959C7.91366 20.0187 8.12715 20.0144 8.32442 19.9467C8.52169 19.879 8.69287 19.7514 8.814 19.5816C8.93513 19.4119 9.00015 19.2085 8.99996 18.9999V15.0099C14.379 15.1219 16.963 16.1429 18.261 17.2529C19.495 18.3079 19.721 19.5489 19.956 20.8489L20.017 21.1839C20.0618 21.4236 20.1928 21.6387 20.3851 21.7886C20.5774 21.9385 20.8179 22.013 21.0614 21.998C21.3048 21.983 21.5343 21.8796 21.7068 21.7072C21.8793 21.5348 21.9828 21.3053 21.998 21.0619C22.169 18.3139 21.912 14.3319 19.971 11.0009C18.087 7.76792 14.694 5.28192 8.99996 5.02192V0.999917Z" fill="#314A85"/>
</svg>
