<svg width="64" height="64" viewBox="0 0 64 64" fill="none" xmlns="http://www.w3.org/2000/svg">
<g clip-path="url(#clip0_17_999)">
<path d="M32 61.2999C48.1819 61.2999 61.3 48.1819 61.3 32C61.3 15.818 48.1819 2.69995 32 2.69995C15.8181 2.69995 2.7 15.818 2.7 32C2.7 48.1819 15.8181 61.2999 32 61.2999Z" fill="white"/>
<path d="M54.7778 28.9999C54.7778 30.4311 54.6622 31.8355 54.4311 33.2044C53.8 37.1066 52.28 40.7155 50.0844 43.8177V43.8266C46.3156 49.1866 40.5467 53.0444 33.8711 54.3155C31.8305 54.7054 29.7504 54.8486 27.6756 54.7422H27.6133C27.1956 54.7155 26.7778 54.6888 26.36 54.6444C26.3244 54.6444 26.2889 54.6355 26.2533 54.6355C25.9067 54.5999 25.56 54.5555 25.2133 54.5022C25.1156 54.4844 25.0089 54.4755 24.9111 54.4577C24.6444 54.4133 24.3867 54.3688 24.12 54.3155C23.7022 54.2355 23.2844 54.1466 22.8667 54.0399C22.6978 54.0044 22.52 53.9599 22.3511 53.9155C22.12 53.8533 21.8889 53.7822 21.6578 53.7111C21.4533 53.6488 21.24 53.5866 21.0267 53.5155C20.8162 53.4537 20.6086 53.3826 20.4044 53.3022L19.8978 53.1155C19.8 53.0888 19.7111 53.0533 19.6133 53.0088C18.7964 52.6829 17.9954 52.318 17.2133 51.9155C17.0089 51.8088 16.8133 51.7022 16.6089 51.5866C16.3778 51.4622 16.1556 51.3377 15.9333 51.2044C15.6844 51.0533 15.4356 50.9111 15.1867 50.7511C15.1156 50.7066 15.0444 50.6533 14.9733 50.6088C14.6267 50.3866 14.28 50.1466 13.9511 49.9066C13.6667 49.7111 13.3911 49.4977 13.1244 49.2933C13.0986 49.2751 13.0748 49.2543 13.0533 49.2311C12.8133 49.0444 12.5822 48.8577 12.36 48.6622C12.2444 48.5733 12.1289 48.4755 12.0222 48.3777L11.7644 48.1466C11.7467 48.1377 11.7378 48.1288 11.7289 48.1199C11.7022 48.0933 11.6756 48.0666 11.6489 48.0488C11.6311 48.0399 11.6222 48.0222 11.6133 48.0133C11.5974 48.0063 11.5848 47.9936 11.5778 47.9777C11.4639 47.8816 11.3542 47.7808 11.2489 47.6755C11.1333 47.5688 11.0267 47.4711 10.9289 47.3644C10.9111 47.3466 10.8933 47.3288 10.8844 47.3111C10.7956 47.2222 10.7067 47.1422 10.6178 47.0622C10.4827 46.9271 10.3582 46.7751 10.2267 46.6355L10.2089 46.6177L10.2107 46.6186C9.91378 46.3039 9.61511 45.9919 9.32889 45.6577C9.11555 45.4088 8.90222 45.1511 8.69778 44.8844C6.00652 41.4569 4.23227 37.4006 3.54222 33.0977C3.32889 31.7644 3.22222 30.3955 3.22222 28.9999C3.22222 23.5155 4.92889 18.4311 7.86222 14.2533C10.6978 10.1822 14.6889 6.97328 19.3556 5.09772C22.3333 3.87995 25.5867 3.22217 29 3.22217C32.4044 3.22217 35.6578 3.87995 38.6267 5.08883C40.8667 5.97772 42.9467 7.18661 44.8222 8.66217C45.32 9.04439 45.8089 9.45328 46.28 9.88883H46.2889C46.76 10.3155 47.2133 10.7599 47.6489 11.2222C48.3156 11.9066 48.9289 12.6266 49.5067 13.3911C49.6933 13.6399 49.8889 13.8977 50.0667 14.1555V14.1644C50.0667 14.1644 50.0667 14.1555 50.0756 14.1644C50.52 14.7777 50.9378 15.4266 51.3111 16.0933C51.4444 16.3155 51.5689 16.5377 51.6933 16.7688C51.8444 17.0444 51.9867 17.3111 52.1111 17.5866C52.2089 17.7733 52.2978 17.9599 52.3867 18.1555C52.5289 18.4399 52.6533 18.7244 52.7689 19.0088C52.9111 19.3288 53.0356 19.6488 53.1511 19.9777C53.2489 20.2266 53.3378 20.4755 53.4178 20.7333C53.4889 20.9377 53.56 21.1511 53.6311 21.3733C53.72 21.6577 53.8 21.9422 53.88 22.2266C53.9333 22.4311 53.9867 22.6266 54.0311 22.8311C54.1911 23.4622 54.3244 24.0933 54.4222 24.7422C54.4578 24.9288 54.4844 25.1155 54.5111 25.3111C54.5556 25.5955 54.5911 25.8888 54.6178 26.1733C54.6356 26.2977 54.6533 26.4222 54.6622 26.5377C54.6889 26.8488 54.7156 27.1599 54.7244 27.4799C54.7422 27.6133 54.7511 27.7377 54.7511 27.8711C54.7689 28.2444 54.7778 28.6177 54.7778 28.9999Z" fill="white"/>
<path d="M54.7778 28.9999C54.7778 30.431 54.6622 31.8355 54.4311 33.2043C53.8 37.1066 52.28 40.7155 50.0844 43.8177V43.8266C46.3156 49.1866 40.5467 53.0443 33.8711 54.3155C31.8305 54.7054 29.7504 54.8486 27.6756 54.7421H27.6133C27.1956 54.7155 26.7778 54.6888 26.36 54.6443C26.3244 54.6443 26.2889 54.6355 26.2533 54.6355C25.9067 54.5999 25.56 54.5555 25.2133 54.5021C25.1156 54.4843 25.0089 54.4755 24.9111 54.4577C24.6444 54.4132 24.3867 54.3688 24.12 54.3155C23.7022 54.2355 23.2844 54.1466 22.8667 54.0399C22.6978 54.0043 22.52 53.9599 22.3511 53.9155C22.12 53.8532 21.8889 53.7821 21.6578 53.711C21.4533 53.6488 21.24 53.5866 21.0267 53.5155C20.8162 53.4537 20.6085 53.3825 20.4044 53.3021L19.8978 53.1155C19.8 53.0888 19.7111 53.0532 19.6133 53.0088C19.2667 52.8666 18.92 52.7243 18.5822 52.5732C18.3511 52.4666 18.12 52.3599 17.8978 52.2532C17.6667 52.1466 17.4444 52.031 17.2133 51.9155C17.0089 51.8088 16.8133 51.7021 16.6089 51.5866C16.3778 51.4621 16.1556 51.3377 15.9333 51.2043C15.6844 51.0532 15.4356 50.911 15.1867 50.751C15.1156 50.7066 15.0444 50.6532 14.9733 50.6088C14.6267 50.3866 14.28 50.1466 13.9511 49.9066C13.6667 49.711 13.3911 49.4977 13.1244 49.2932C13.0986 49.2751 13.0748 49.2542 13.0533 49.231C12.8133 49.0443 12.5822 48.8577 12.36 48.6621C12.1086 48.4487 11.8597 48.2324 11.6133 48.0132C11.5974 48.0062 11.5848 47.9936 11.5778 47.9777C11.3467 47.7555 11.1067 47.5421 10.8844 47.311C10.6533 47.0799 10.4311 46.8488 10.2089 46.6177C13.7556 48.6977 17.8533 49.9688 22.2267 50.1288C22.5644 50.1466 22.9022 50.1555 23.24 50.1555C29.2489 50.1555 34.7867 48.1021 39.1689 44.6443C44.4933 40.4577 48.1289 34.2177 48.8756 27.1155C48.9733 26.2177 49.0178 25.3021 49.0178 24.3777C49.0178 22.5377 48.8222 20.751 48.4578 19.0266V19.0177C47.489 14.4471 45.2916 10.2274 42.1022 6.81323C43.0444 7.37323 43.96 7.99545 44.8222 8.66212C45.32 9.05323 45.8089 9.46212 46.28 9.88879C46.28 9.88879 46.28 9.8799 46.2889 9.88879C46.76 10.3243 47.2133 10.7599 47.6489 11.2221C48.52 12.1377 49.3378 13.1243 50.0667 14.1643C50.5111 14.7866 50.9289 15.4266 51.3111 16.0932C51.4444 16.3155 51.5689 16.5377 51.6933 16.7688C51.8444 17.0443 51.9867 17.311 52.1111 17.5866C52.2089 17.7732 52.2978 17.9599 52.3867 18.1555C52.5289 18.4399 52.6533 18.7243 52.7689 19.0088C52.9111 19.3288 53.0355 19.6488 53.1511 19.9777C53.2489 20.2266 53.3378 20.4755 53.4178 20.7332C53.4889 20.9377 53.56 21.151 53.6311 21.3732C53.72 21.6577 53.8 21.9421 53.88 22.2266C53.9333 22.431 53.9867 22.6266 54.0311 22.831C54.1911 23.4621 54.3244 24.0932 54.4222 24.7421C54.4578 24.9288 54.4844 25.1155 54.5111 25.311C54.5555 25.5955 54.5911 25.8888 54.6178 26.1732C54.6356 26.2977 54.6533 26.4221 54.6622 26.5377C54.6889 26.8488 54.7156 27.1599 54.7244 27.4799C54.7422 27.6132 54.7511 27.7377 54.7511 27.871C54.7689 28.2443 54.7778 28.6177 54.7778 28.9999Z" fill="#D0CFCE"/>
<path d="M54.7778 28.9999C54.7778 30.4311 54.6622 31.8355 54.4311 33.2044C53.8 37.1066 52.28 40.7155 50.0844 43.8177V43.8266C46.3156 49.1866 40.5467 53.0444 33.8711 54.3155C31.8305 54.7054 29.7504 54.8486 27.6756 54.7422H27.6133C27.1956 54.7155 26.7778 54.6888 26.36 54.6444C26.3244 54.6444 26.2889 54.6355 26.2533 54.6355C25.9067 54.5999 25.56 54.5555 25.2133 54.5022C25.1156 54.4844 25.0089 54.4755 24.9111 54.4577C24.6444 54.4133 24.3867 54.3688 24.12 54.3155C23.7022 54.2355 23.2844 54.1466 22.8667 54.0399C22.6978 54.0044 22.52 53.9599 22.3511 53.9155C22.12 53.8533 21.8889 53.7822 21.6578 53.7111C21.4533 53.6488 21.24 53.5866 21.0267 53.5155C20.8162 53.4537 20.6086 53.3826 20.4044 53.3022L19.8978 53.1155C19.8 53.0888 19.7111 53.0533 19.6133 53.0088C18.7964 52.6829 17.9954 52.318 17.2133 51.9155C17.0089 51.8088 16.8133 51.7022 16.6089 51.5866C16.3778 51.4622 16.1556 51.3377 15.9333 51.2044C15.6844 51.0533 15.4356 50.9111 15.1867 50.7511C15.1156 50.7066 15.0444 50.6533 14.9733 50.6088C14.6267 50.3866 14.28 50.1466 13.9511 49.9066C13.6667 49.7111 13.3911 49.4977 13.1244 49.2933C13.0986 49.2751 13.0748 49.2543 13.0533 49.2311C12.8133 49.0444 12.5822 48.8577 12.36 48.6622C12.2444 48.5733 12.1289 48.4755 12.0222 48.3777L11.7644 48.1466C11.7467 48.1377 11.7378 48.1288 11.7289 48.1199C11.7022 48.0933 11.6756 48.0666 11.6489 48.0488C11.6311 48.0399 11.6222 48.0222 11.6133 48.0133C11.5974 48.0063 11.5848 47.9936 11.5778 47.9777C11.4639 47.8816 11.3542 47.7808 11.2489 47.6755C11.1333 47.5688 11.0267 47.4711 10.9289 47.3644C10.9111 47.3466 10.8933 47.3288 10.8844 47.3111C10.7956 47.2222 10.7067 47.1422 10.6178 47.0622C10.4827 46.9271 10.3582 46.7751 10.2267 46.6355L10.2089 46.6177L10.2107 46.6186C9.91378 46.3039 9.61511 45.9919 9.32889 45.6577C9.11555 45.4088 8.90222 45.1511 8.69778 44.8844C6.00652 41.4569 4.23227 37.4006 3.54222 33.0977C3.32889 31.7644 3.22222 30.3955 3.22222 28.9999C3.22222 23.5155 4.92889 18.4311 7.86222 14.2533C10.6978 10.1822 14.6889 6.97328 19.3556 5.09772C22.3333 3.87995 25.5867 3.22217 29 3.22217C32.4044 3.22217 35.6578 3.87995 38.6267 5.08883C40.8667 5.97772 42.9467 7.18661 44.8222 8.66217C45.32 9.04439 45.8089 9.45328 46.28 9.88883H46.2889C46.76 10.3155 47.2133 10.7599 47.6489 11.2222C48.3156 11.9066 48.9289 12.6266 49.5067 13.3911C49.6933 13.6399 49.8889 13.8977 50.0667 14.1555V14.1644C50.0667 14.1644 50.0667 14.1555 50.0756 14.1644C50.52 14.7777 50.9378 15.4266 51.3111 16.0933C51.4444 16.3155 51.5689 16.5377 51.6933 16.7688C51.8444 17.0444 51.9867 17.3111 52.1111 17.5866C52.2089 17.7733 52.2978 17.9599 52.3867 18.1555C52.5289 18.4399 52.6533 18.7244 52.7689 19.0088C52.9111 19.3288 53.0356 19.6488 53.1511 19.9777C53.2489 20.2266 53.3378 20.4755 53.4178 20.7333C53.4889 20.9377 53.56 21.1511 53.6311 21.3733C53.72 21.6577 53.8 21.9422 53.88 22.2266C53.9333 22.4311 53.9867 22.6266 54.0311 22.8311C54.1911 23.4622 54.3244 24.0933 54.4222 24.7422C54.4578 24.9288 54.4844 25.1155 54.5111 25.3111C54.5556 25.5955 54.5911 25.8888 54.6178 26.1733C54.6356 26.2977 54.6533 26.4222 54.6622 26.5377C54.6889 26.8488 54.7156 27.1599 54.7244 27.4799C54.7422 27.6133 54.7511 27.7377 54.7511 27.8711C54.7689 28.2444 54.7778 28.6177 54.7778 28.9999V28.9999Z" stroke="black" stroke-width="2" stroke-miterlimit="10" stroke-linecap="round" stroke-linejoin="round"/>
<path d="M27.4329 21.9537L21.9609 25.9288C21.5053 26.2598 21.1662 26.7265 20.9921 27.2621C20.8181 27.7977 20.818 28.3746 20.992 28.9102L23.0827 35.3422C23.2567 35.8777 23.5958 36.3445 24.0513 36.6755C24.5069 37.0065 25.0555 37.1848 25.6187 37.1848H32.3813C32.9446 37.185 33.4935 37.0068 33.9492 36.6757C34.405 36.3447 34.7442 35.8779 34.9182 35.3422L37.0071 28.9102C37.1811 28.3746 37.1811 27.7977 37.007 27.2621C36.833 26.7265 36.4938 26.2598 36.0382 25.9288L30.5671 21.9537C30.1116 21.6229 29.563 21.4447 29 21.4447C28.437 21.4447 27.8884 21.6229 27.4329 21.9537ZM38.1378 6.04884L30.6622 9.71106C30.1378 9.95995 29.5689 10.0844 29 10.0755C28.4933 10.0666 27.9867 9.95106 27.5067 9.72883L19.8533 6.08439C19.48 5.90661 19.2844 5.48883 19.3556 5.09772C22.3333 3.87995 25.5867 3.22217 29 3.22217C32.4044 3.22217 35.6578 3.87995 38.6267 5.08884C38.6978 5.47106 38.5111 5.87106 38.1378 6.04884ZM24.12 54.3155C23.7022 54.2355 23.2844 54.1466 22.8667 54.0399C22.6978 54.0044 22.52 53.9599 22.3511 53.9155C22.12 53.8533 21.8889 53.7822 21.6578 53.7111C21.4533 53.6488 21.24 53.5866 21.0267 53.5155C20.8162 53.4537 20.6086 53.3826 20.4044 53.3022L19.8978 53.1155C19.8 53.0888 19.7111 53.0533 19.6133 53.0088C19.2667 52.8666 18.92 52.7244 18.5822 52.5733C18.1182 52.3688 17.664 52.1466 17.2142 51.9146C17.0098 51.8097 16.8098 51.6995 16.6089 51.5893C16.3813 51.4648 16.1556 51.3359 15.9333 51.2044C15.6819 51.0581 15.433 50.9075 15.1867 50.7528C15.1138 50.7066 15.0436 50.6568 14.9716 50.6097C12.1878 48.8079 9.77706 46.4868 7.87111 43.7733C8.04 43.4711 8.38667 43.2844 8.76889 43.3288L17.0711 44.3422C17.64 44.4133 18.1733 44.6088 18.6356 44.9199C19.0711 45.2133 19.4444 45.5955 19.72 46.0488L22.2267 50.1288L24.1733 53.3111C24.3689 53.6311 24.3422 54.0311 24.12 54.3155ZM10.4756 24.8844C10.3478 25.4066 10.1082 25.8949 9.77333 26.3155L4.52889 32.8044C4.28 33.1066 3.88 33.2133 3.54222 33.0977C3.32889 31.7644 3.22222 30.3955 3.22222 28.9999C3.22222 23.5155 4.92889 18.4311 7.86222 14.2533C8.23556 14.2977 8.56444 14.5644 8.64444 14.9555L10.4933 23.2488C10.6178 23.7911 10.6089 24.3511 10.4756 24.8844ZM50.0844 43.8177V43.8266C46.3156 49.1866 40.5467 53.0444 33.8711 54.3155C33.64 54.0311 33.6133 53.6222 33.8089 53.2933L38.2444 46.0577C38.53 45.5931 38.9163 45.1985 39.3747 44.9031C39.8332 44.6077 40.3522 44.419 40.8933 44.3511L49.1689 43.3377C49.56 43.2933 49.9156 43.4977 50.0844 43.8177ZM54.7778 28.9999C54.7778 30.4311 54.6622 31.8355 54.4311 33.2044C54.2687 33.241 54.0992 33.2312 53.9421 33.1762C53.7849 33.1212 53.6464 33.0232 53.5422 32.8933L48.8756 27.1155L48.2267 26.3155C47.8828 25.892 47.64 25.3957 47.5168 24.8643C47.3936 24.3329 47.3931 23.7804 47.5156 23.2488L48.4578 19.0266V19.0177L49.3822 14.8488C49.4533 14.5022 49.7289 14.2355 50.0667 14.1644C50.0667 14.1555 50.0667 14.1555 50.0756 14.1644C50.52 14.7777 50.9378 15.4266 51.3111 16.0933C51.4444 16.3155 51.5689 16.5377 51.6933 16.7688C51.8444 17.0444 51.9867 17.3111 52.1111 17.5866C52.2089 17.7733 52.2978 17.9599 52.3867 18.1555C52.5289 18.4399 52.6533 18.7244 52.7689 19.0088C52.9111 19.3288 53.0356 19.6488 53.1511 19.9777C53.2489 20.2266 53.3378 20.4755 53.4178 20.7333C53.4889 20.9377 53.56 21.1511 53.6311 21.3733C53.72 21.6577 53.8 21.9422 53.88 22.2266C53.9333 22.4311 53.9867 22.6266 54.0311 22.8311C54.1911 23.4622 54.3244 24.0933 54.4222 24.7422C54.4578 24.9288 54.4844 25.1155 54.5111 25.3111C54.5556 25.5955 54.5911 25.8888 54.6178 26.1733C54.6356 26.2977 54.6533 26.4222 54.6622 26.5377C54.6889 26.8488 54.7156 27.1599 54.7244 27.4799C54.7422 27.6133 54.7511 27.7377 54.7511 27.8711C54.7689 28.2444 54.7778 28.6177 54.7778 28.9999Z" fill="black"/>
<path d="M21.0009 27.2392L10.4791 24.8872M29 10.0774V21.4445V10.0774ZM36.9902 27.2134L47.5004 24.8463L36.9902 27.2134ZM33.9698 36.6596L39.3449 44.9227L33.9698 36.6596ZM24.0169 36.6498L18.6382 44.9227L24.0169 36.6498Z" stroke="black" stroke-width="2" stroke-miterlimit="10" stroke-linecap="round" stroke-linejoin="round"/>
</g>
<defs>
<clipPath id="clip0_17_999">
<rect width="64" height="64" fill="white"/>
</clipPath>
</defs>
</svg>
