<svg width="254" height="144" viewBox="0 0 254 144" fill="none" xmlns="http://www.w3.org/2000/svg">
<circle cx="144" cy="50" r="50" fill="white"/>
<circle cx="161" cy="89" r="55" fill="white"/>
<circle cx="80" cy="75" r="50" fill="white"/>
<circle cx="219" cy="94" r="35" fill="white"/>
<path d="M50 89C50 102.807 38.8071 114 25 114C11.1929 114 0 102.807 0 89C0 75.1929 11.1929 64 25 64C38.8071 64 50 75.1929 50 89Z" fill="white"/>
<path d="M230 50C230 63.8071 218.807 75 205 75C191.193 75 180 63.8071 180 50C180 36.1929 191.193 25 205 25C218.807 25 230 36.1929 230 50Z" fill="white"/>
<path d="M80.793 85H69.7012V83.7344C70.5684 83.7344 71.2188 83.6582 71.6523 83.5059C72.0977 83.3418 72.3906 83.0605 72.5312 82.6621C72.6836 82.2637 72.7598 81.6953 72.7598 80.957V67.7031C72.7598 66.5898 72.5723 65.8164 72.1973 65.3828C71.834 64.9375 71.002 64.7148 69.7012 64.7148V63.4492H80.793V64.7148C79.5039 64.7148 78.6777 64.9375 78.3145 65.3828C77.9512 65.8164 77.7695 66.5898 77.7695 67.7031V80.957C77.7695 81.6953 77.8398 82.2637 77.9805 82.6621C78.1328 83.0605 78.4258 83.3418 78.8594 83.5059C79.293 83.6582 79.9375 83.7344 80.793 83.7344V85ZM105.525 74.2246C105.525 75.4902 105.303 76.7148 104.857 77.8984C104.412 79.082 103.803 80.1719 103.029 81.168C102.268 82.1523 101.395 82.9902 100.41 83.6816C99.4375 84.373 98.418 84.8594 97.3516 85.1406C98.1719 86.4883 99.209 87.6719 100.463 88.6914C101.717 89.7227 103.375 90.3496 105.438 90.5723V91.8379C103.258 91.8379 101.23 91.5449 99.3555 90.959C97.4805 90.3848 95.8047 89.5879 94.3281 88.5684C92.8633 87.5605 91.6328 86.4121 90.6367 85.123C89.1367 84.666 87.7773 83.9277 86.5586 82.9082C85.3516 81.8887 84.3906 80.6465 83.6758 79.1816C82.9727 77.7051 82.6211 76.0527 82.6211 74.2246C82.6211 72.127 83.0957 70.2285 84.0449 68.5293C85.0059 66.8301 86.3418 65.4824 88.0527 64.4863C89.7754 63.4785 91.7734 62.9746 94.0469 62.9746C96.3789 62.9746 98.4004 63.4785 100.111 64.4863C101.834 65.4824 103.164 66.8301 104.102 68.5293C105.051 70.2285 105.525 72.127 105.525 74.2246ZM99.7949 74.2246C99.7949 73.0996 99.7188 71.9688 99.5664 70.832C99.4258 69.6953 99.1504 68.6582 98.7402 67.7207C98.3418 66.7715 97.7617 66.0098 97 65.4355C96.25 64.8613 95.2656 64.5742 94.0469 64.5742C92.8984 64.5742 91.9551 64.8613 91.2168 65.4355C90.4785 66.0098 89.8984 66.7715 89.4766 67.7207C89.0664 68.6582 88.7734 69.6953 88.5977 70.832C88.4336 71.9688 88.3516 73.0996 88.3516 74.2246C88.3516 75.3496 88.4453 76.4805 88.6328 77.6172C88.8203 78.7539 89.1309 79.7969 89.5645 80.7461C89.998 81.6836 90.5781 82.4395 91.3047 83.0137C92.043 83.5762 92.957 83.8574 94.0469 83.8574C95.1484 83.8574 96.0684 83.5762 96.8066 83.0137C97.5449 82.4395 98.1309 81.6836 98.5645 80.7461C99.0098 79.7969 99.3262 78.7539 99.5137 77.6172C99.7012 76.4805 99.7949 75.3496 99.7949 74.2246ZM136.252 79.1113C136.252 80.4121 135.859 81.502 135.074 82.3809C134.301 83.248 133.299 83.9043 132.068 84.3496C130.85 84.7832 129.561 85 128.201 85H116.318V83.7344C117.619 83.7344 118.451 83.5117 118.814 83.0664C119.189 82.6211 119.377 81.8477 119.377 80.7461V67.7031C119.377 66.5898 119.189 65.8164 118.814 65.3828C118.451 64.9375 117.619 64.7148 116.318 64.7148V63.4492H128.342C129.982 63.4492 131.307 63.7188 132.314 64.2578C133.322 64.7969 134.055 65.4531 134.512 66.2266C134.98 67 135.215 67.75 135.215 68.4766C135.215 69.2031 135.104 69.8828 134.881 70.5156C134.67 71.1484 134.201 71.7168 133.475 72.2207C132.748 72.7246 131.629 73.1641 130.117 73.5391C132.285 73.9727 133.85 74.6582 134.811 75.5957C135.771 76.5215 136.252 77.6934 136.252 79.1113ZM129.906 68.8809C129.906 67.6973 129.584 66.8125 128.939 66.2266C128.295 65.6406 127.117 65.3477 125.406 65.3477C125.172 65.3477 124.973 65.3594 124.809 65.3828C124.656 65.4062 124.516 65.4297 124.387 65.4531V72.8535C124.457 72.8535 124.586 72.8594 124.773 72.8711C124.961 72.8828 125.172 72.8887 125.406 72.8887C126.93 72.8887 128.061 72.5254 128.799 71.7988C129.537 71.0723 129.906 70.0996 129.906 68.8809ZM130.645 79.2695C130.645 77.6406 130.182 76.4629 129.256 75.7363C128.342 74.998 127.059 74.6289 125.406 74.6289C124.926 74.6289 124.586 74.6465 124.387 74.6816V81.2383C124.387 82 124.527 82.5039 124.809 82.75C125.102 82.9961 125.541 83.1191 126.127 83.1191C126.795 83.1191 127.475 83.0254 128.166 82.8379C128.869 82.6387 129.455 82.2637 129.924 81.7129C130.404 81.1621 130.645 80.3477 130.645 79.2695ZM160.773 85H149.98V83.7344C150.918 83.7344 151.574 83.6582 151.949 83.5059C152.324 83.3418 152.512 83.0781 152.512 82.7148C152.512 82.6094 152.482 82.4277 152.424 82.1699C152.365 81.9004 152.23 81.4727 152.02 80.8867C151.809 80.3008 151.469 79.4863 151 78.4434H144.092C144.045 78.5605 143.951 78.7949 143.811 79.1465C143.682 79.4863 143.541 79.8613 143.389 80.2715C143.236 80.6699 143.102 81.0391 142.984 81.3789C142.879 81.707 142.826 81.9238 142.826 82.0293C142.826 83.0488 143.781 83.6172 145.691 83.7344V85H137.676V83.7344C138.168 83.6406 138.596 83.5059 138.959 83.3301C139.322 83.1426 139.662 82.832 139.979 82.3984C140.307 81.9531 140.646 81.3086 140.998 80.4648L148.188 62.9746H149.453L157.451 81.1855C157.861 82.1348 158.377 82.791 158.998 83.1543C159.631 83.5176 160.223 83.7109 160.773 83.7344V85ZM150.174 76.5801L147.326 70.2344L144.777 76.5801H150.174ZM181.938 77.4414L179.635 85H161.617V83.7344C162.918 83.7344 163.75 83.5117 164.113 83.0664C164.477 82.6211 164.658 81.8477 164.658 80.7461V67.7031C164.658 66.5898 164.477 65.8164 164.113 65.3828C163.75 64.9375 162.918 64.7148 161.617 64.7148V63.4492H172.938V64.7148C171.648 64.7148 170.775 64.9375 170.318 65.3828C169.873 65.8164 169.65 66.5898 169.65 67.7031V80.7461C169.65 81.3789 169.721 81.8652 169.861 82.2051C170.002 82.5449 170.318 82.7852 170.811 82.9258C171.314 83.0547 172.105 83.1191 173.184 83.1191H174.836C175.586 83.1191 176.295 82.9609 176.963 82.6445C177.631 82.3164 178.27 81.7422 178.879 80.9219C179.488 80.1016 180.086 78.9414 180.672 77.4414H181.938ZM205.738 85H194.945V83.7344C195.883 83.7344 196.539 83.6582 196.914 83.5059C197.289 83.3418 197.477 83.0781 197.477 82.7148C197.477 82.6094 197.447 82.4277 197.389 82.1699C197.33 81.9004 197.195 81.4727 196.984 80.8867C196.773 80.3008 196.434 79.4863 195.965 78.4434H189.057C189.01 78.5605 188.916 78.7949 188.775 79.1465C188.646 79.4863 188.506 79.8613 188.354 80.2715C188.201 80.6699 188.066 81.0391 187.949 81.3789C187.844 81.707 187.791 81.9238 187.791 82.0293C187.791 83.0488 188.746 83.6172 190.656 83.7344V85H182.641V83.7344C183.133 83.6406 183.561 83.5059 183.924 83.3301C184.287 83.1426 184.627 82.832 184.943 82.3984C185.271 81.9531 185.611 81.3086 185.963 80.4648L193.152 62.9746H194.418L202.416 81.1855C202.826 82.1348 203.342 82.791 203.963 83.1543C204.596 83.5176 205.188 83.7109 205.738 83.7344V85ZM195.139 76.5801L192.291 70.2344L189.742 76.5801H195.139Z" fill="url(#paint0_linear_5_144)"/>
<defs>
<linearGradient id="paint0_linear_5_144" x1="137" y1="62.5" x2="137.5" y2="110" gradientUnits="userSpaceOnUse">
<stop stop-color="#02134E" stop-opacity="0.61"/>
<stop offset="0.0864582" stop-color="#041D77" stop-opacity="0.8"/>
<stop offset="0.180208" stop-color="#07279A" stop-opacity="0.69"/>
<stop offset="0.253125" stop-color="#07279A" stop-opacity="0.69"/>
<stop offset="0.326042" stop-color="#076E9A" stop-opacity="0.69"/>
<stop offset="0.419792" stop-color="#079A39" stop-opacity="0.69"/>
<stop offset="0.477083" stop-color="#E2641D" stop-opacity="0.69"/>
<stop offset="0.596875" stop-color="#D77F19" stop-opacity="0.69"/>
<stop offset="0.690625" stop-color="#D71919" stop-opacity="0.69"/>
</linearGradient>
</defs>
</svg>
