<svg width="100" height="100" viewBox="0 0 100 100" fill="none" xmlns="http://www.w3.org/2000/svg">
<path d="M75.1209 25.9295C75.1209 26.4364 74.9195 26.9226 74.5611 27.281C74.2026 27.6395 73.7165 27.8408 73.2095 27.8408C62.6805 27.8408 53.6353 21.3703 49.8381 12.1977C46.0406 21.3705 36.9955 27.8408 26.4662 27.8408C25.4105 27.8408 24.5549 26.9852 24.5549 25.9295C24.5549 24.8738 25.4105 24.0182 26.4662 24.0182C38.2994 24.0182 47.9265 14.391 47.9265 2.55781C47.9265 1.50215 48.7822 0.646484 49.8379 0.646484C50.8935 0.646484 51.7494 1.50215 51.7494 2.55781C51.7494 14.391 61.3764 24.0182 73.2095 24.0182C73.7165 24.0182 74.2026 24.2195 74.5611 24.578C74.9195 24.9364 75.1209 25.4226 75.1209 25.9295Z" fill="#2B3B47"/>
<path d="M0.24707 44.4088C0.24707 31.3275 10.8516 20.723 23.9328 20.723C37.0141 20.723 47.6186 31.3275 47.6186 44.4088H0.24707ZM99.7529 44.4088C99.7529 31.3275 89.1484 20.723 76.0672 20.723C62.9859 20.723 52.3814 31.3275 52.3814 44.4088" fill="#FFB636"/>
<path d="M7.34119 44.4088C7.34119 31.3275 21.423 20.723 23.9328 20.723C26.4426 20.723 16.4297 31.3275 16.4297 44.4088H7.34119ZM68.564 44.4088C68.564 31.3275 78.5769 20.723 76.0672 20.723C73.5574 20.723 59.4756 31.3275 59.4756 44.4088" fill="#FFD469"/>
<path d="M23.9328 48.8773C10.8516 48.8773 0.24707 47.1388 0.24707 44.9945C0.24707 42.85 10.8516 41.1117 23.9328 41.1117C37.0141 41.1117 47.6186 42.8502 47.6186 44.9945C47.6186 47.1388 37.0141 48.8773 23.9328 48.8773ZM99.7529 44.9945C99.7529 42.85 89.1484 41.1117 76.0672 41.1117C62.9859 41.1117 52.3814 42.8502 52.3814 44.9945C52.3814 47.139 62.9859 48.8773 76.0672 48.8773C89.1484 48.8773 99.7529 47.1388 99.7529 44.9945Z" fill="#A06C33"/>
<path d="M54.1018 64.9744C54.1018 66.4858 52.8766 67.711 51.3652 67.711C49.8539 67.711 48.6287 66.4858 48.6287 64.9744C48.6287 63.4631 49.8539 62.2379 51.3652 62.2379C52.8766 62.2379 54.1018 63.4633 54.1018 64.9744ZM66.7852 91.4434C65.4516 91.4434 64.3705 92.5244 64.3705 93.858C64.3705 95.1916 65.4516 96.2727 66.7852 96.2727C68.1188 96.2727 69.1998 95.1916 69.1998 93.858C69.1998 92.5246 68.1188 91.4434 66.7852 91.4434ZM13.7883 79.0403C12.4547 79.0403 11.3737 80.1213 11.3737 81.4549C11.3737 82.7885 12.4547 83.8696 13.7883 83.8696C15.1219 83.8696 16.203 82.7885 16.203 81.4549C16.203 80.1213 15.1219 79.0403 13.7883 79.0403Z" fill="#FFB636"/>
<path d="M29.6275 92.8816C29.6275 94.6275 28.2121 96.0429 26.4662 96.0429C24.7203 96.0429 23.3049 94.6275 23.3049 92.8816C23.3049 91.1357 24.7203 89.7202 26.4662 89.7202C28.2123 89.72 29.6275 91.1355 29.6275 92.8816ZM78.9277 46.6246C77.7732 45.4412 76.1527 44.6439 74.3644 44.3796C73.3213 44.2249 72.3465 44.947 72.1918 45.9927C72.0373 47.0382 72.7594 48.0109 73.8049 48.1654C74.7553 48.3058 75.624 48.7183 76.1887 49.2968C76.4416 49.5562 76.8527 50.0806 76.7642 50.6794C76.6758 51.2783 76.1305 51.6613 75.8133 51.8363C75.1053 52.2271 74.1547 52.3701 73.2041 52.2298C69.3197 51.6564 65.7728 53.7982 65.2982 57.0062C64.824 60.214 67.5988 63.2911 71.4838 63.8656C71.5041 63.8685 71.524 63.8677 71.5443 63.8701C73.4295 64.1716 74.5848 65.4222 74.4441 66.3732C74.3557 66.9718 73.8103 67.355 73.4932 67.53C72.7851 67.9206 71.8346 68.0644 70.884 67.9236C66.9998 67.3497 63.4527 69.4919 62.9781 72.6999C62.5039 75.9077 65.2787 78.9849 69.1637 79.5593C69.2584 79.5732 69.3527 79.58 69.4459 79.58C70.3787 79.58 71.1957 78.8968 71.3363 77.9462C71.4908 76.9009 70.7687 75.9282 69.7232 75.7736C67.8021 75.4896 66.6217 74.2206 66.7639 73.2597C66.906 72.2984 68.4025 71.424 70.3242 71.7093C70.7521 71.7726 71.1801 71.8038 71.6031 71.8038C72.9465 71.8038 74.241 71.4882 75.342 70.8806C76.9365 70.0007 77.9891 68.5618 78.2299 66.9327C78.7041 63.7249 75.9293 60.6478 72.0443 60.0734C72.0187 60.0697 71.9936 60.0687 71.968 60.0659C70.0924 59.7599 68.9437 58.514 69.0838 57.566C69.226 56.6046 70.7228 55.7306 72.6441 56.0156C73.0723 56.0788 73.5 56.1101 73.923 56.1101C75.2666 56.1101 76.5609 55.7945 77.6619 55.1869C79.2564 54.307 80.309 52.8681 80.5498 51.239C80.7906 49.6099 80.1994 47.9281 78.9277 46.6246Z" fill="#BEA4FF"/>
<path d="M56.315 84.6164C56.315 86.3623 54.8996 87.7778 53.1537 87.7778C51.4078 87.7778 49.9924 86.3623 49.9924 84.6164C49.9924 82.8705 51.4078 81.4551 53.1537 81.4551C54.8996 81.4549 56.315 82.8703 56.315 84.6164ZM23.5506 52.5098C22.3219 51.3147 20.6236 50.5326 18.7685 50.308C18.7426 50.3049 18.717 50.3047 18.6912 50.3025C17.0205 50.0719 15.8887 49.009 15.9879 48.19C16.1336 46.9875 15.2767 45.8945 14.0744 45.7488C12.873 45.6043 11.7789 46.46 11.6332 47.6623C11.2178 51.0918 14.1197 54.1695 18.24 54.669C18.2631 54.6717 18.2855 54.6711 18.3084 54.6731C19.176 54.7912 19.9691 55.1455 20.492 55.6541C20.7144 55.8705 21.0791 56.3057 21.0209 56.7871C20.9627 57.2682 20.5045 57.6035 20.2367 57.7606C19.591 58.1391 18.7082 58.2943 17.8139 58.1858C15.9584 57.9606 14.1228 58.3145 12.6443 59.1816C10.9974 60.1473 9.93319 61.6891 9.7244 63.4111C9.30877 66.8408 12.2107 69.9184 16.331 70.418C16.4207 70.4289 16.5097 70.4342 16.5978 70.4342C17.6912 70.4342 18.6375 69.6174 18.7722 68.5047C18.9181 67.3022 18.0613 66.2092 16.859 66.0635C15.1457 65.8559 13.9781 64.7705 14.0789 63.9391C14.1373 63.4578 14.5953 63.1225 14.8633 62.9654C15.5088 62.5869 16.392 62.4316 17.2859 62.5402C17.6506 62.5846 18.0142 62.6063 18.3748 62.6063C19.8488 62.6063 21.2676 62.2412 22.4555 61.5443C24.1025 60.5787 25.1666 59.0369 25.3754 57.3148C25.5842 55.5924 24.9191 53.841 23.5506 52.5098ZM88.6123 97.2949C89.6252 96.6309 89.9078 95.2713 89.2433 94.2582C81.8929 83.05 87.5285 75.1494 90.8953 70.4291C91.3049 69.8551 91.6916 69.3127 92.007 68.8264C92.6662 67.8102 92.3769 66.452 91.3605 65.7928C90.3441 65.1336 88.9861 65.4231 88.3269 66.4393C88.064 66.8445 87.7211 67.3252 87.324 67.882C83.8365 72.7717 76.5791 82.9463 85.5752 96.6639C85.7748 96.9686 86.0472 97.2187 86.3678 97.3917C86.6884 97.5647 87.047 97.655 87.4113 97.6545C87.8382 97.6547 88.2558 97.5297 88.6123 97.2949Z" fill="#FF6E83"/>
<path d="M45.8269 55.8559C45.8269 57.0654 44.8465 58.0459 43.6369 58.0459C42.4273 58.0459 41.4469 57.0654 41.4469 55.8559C41.4469 54.6463 42.4273 53.6658 43.6369 53.6658C44.8465 53.6658 45.8269 54.6463 45.8269 55.8559ZM92.5166 52.1709C91.3424 52.1709 90.3906 53.1229 90.3906 54.2969C90.3906 55.4709 91.3424 56.4229 92.5166 56.4229C93.6908 56.4229 94.6426 55.4709 94.6426 54.2969C94.6426 53.1229 93.6906 52.1709 92.5166 52.1709ZM31.5488 84.3074C31.8791 83.9498 32.2752 83.548 32.6947 83.1227C34.823 80.9637 37.7381 78.0072 38.9994 73.9639C40.5146 69.1064 39.2137 63.9443 35.1322 58.6207C34.4238 57.6965 33.1006 57.5223 32.1768 58.2303C31.2529 58.9387 31.0781 60.2617 31.7863 61.1857C35.0305 65.4172 36.0734 69.1863 34.9748 72.7082C34.018 75.7752 31.6195 78.208 29.6926 80.1627C29.2484 80.6133 28.8289 81.0387 28.4519 81.4467C27.6621 82.3019 27.715 83.6355 28.5701 84.4254C28.959 84.7858 29.4698 84.9857 30 84.985C30.291 84.9854 30.5789 84.9254 30.8455 84.8088C31.1122 84.6922 31.3516 84.5214 31.5488 84.3074Z" fill="#59CAFC"/>
</svg>
