<svg width="308" height="128" viewBox="0 0 308 128" fill="none" xmlns="http://www.w3.org/2000/svg">
<path d="M103.664 15.892C103.481 15.6181 103.234 15.3935 102.944 15.2382C102.653 15.0829 102.329 15.0016 102 15.0016C101.671 15.0016 101.347 15.0829 101.056 15.2382C100.766 15.3935 100.519 15.6181 100.336 15.892L88.3359 33.892C88.1355 34.1932 88.0205 34.5431 88.0032 34.9045C87.986 35.2658 88.067 35.6251 88.2378 35.944C88.4085 36.263 88.6626 36.5296 88.9729 36.7156C89.2832 36.9015 89.6382 36.9998 89.9999 37H90.3919L82.3039 49.94C82.1147 50.2428 82.01 50.5907 82.0006 50.9475C81.9912 51.3044 82.0776 51.6573 82.2506 51.9696C82.4237 52.2818 82.6772 52.5421 82.9848 52.7233C83.2924 52.9045 83.6429 53 83.9999 53H84.7639L78.2119 66.104C78.0591 66.409 77.9869 66.7479 78.002 67.0886C78.0171 67.4293 78.119 67.7605 78.2982 68.0507C78.4774 68.3409 78.7278 68.5805 79.0256 68.7466C79.3235 68.9128 79.6589 69 79.9999 69H97.9999V79H106V69H124C124.341 69 124.676 68.9128 124.974 68.7466C125.272 68.5805 125.522 68.3409 125.702 68.0507C125.881 67.7605 125.983 67.4293 125.998 67.0886C126.013 66.7479 125.941 66.409 125.788 66.104L119.24 53H120.004C120.361 53 120.711 52.9045 121.019 52.7233C121.327 52.5421 121.58 52.2818 121.753 51.9696C121.926 51.6573 122.013 51.3044 122.003 50.9475C121.994 50.5907 121.889 50.2428 121.7 49.94L113.608 37H114C114.362 36.9998 114.717 36.9015 115.027 36.7156C115.337 36.5296 115.591 36.263 115.762 35.944C115.933 35.6251 116.014 35.2658 115.997 34.9045C115.979 34.5431 115.864 34.1932 115.664 33.892L103.664 15.892Z" fill="#0FA958"/>
<path d="M159.328 1.78395C158.963 1.23612 158.468 0.786937 157.887 0.476268C157.307 0.165599 156.659 0.00305176 156 0.00305176C155.342 0.00305176 154.693 0.165599 154.113 0.476268C153.532 0.786937 153.037 1.23612 152.672 1.78395L128.672 37.784C128.271 38.3863 128.041 39.0861 128.007 39.8088C127.972 40.5315 128.134 41.2501 128.476 41.888C128.817 42.5258 129.325 43.0591 129.946 43.431C130.567 43.803 131.277 43.9996 132 44H132.784L116.608 69.8799C116.23 70.4854 116.02 71.1812 116.001 71.895C115.983 72.6087 116.155 73.3145 116.502 73.939C116.848 74.5635 117.355 75.084 117.97 75.4464C118.585 75.8088 119.286 75.9999 120 75.9999H121.528L108.424 102.208C108.119 102.818 107.974 103.496 108.004 104.177C108.034 104.859 108.238 105.521 108.597 106.101C108.955 106.682 109.456 107.161 110.052 107.493C110.647 107.825 111.318 108 112 108H148V128H164V108H200C200.682 108 201.353 107.825 201.949 107.493C202.544 107.161 203.045 106.682 203.404 106.101C203.762 105.521 203.966 104.859 203.996 104.177C204.026 103.496 203.882 102.818 203.576 102.208L190.48 75.9999H192.008C192.722 75.9999 193.423 75.8088 194.038 75.4464C194.654 75.084 195.161 74.5635 195.507 73.939C195.853 73.3145 196.025 72.6087 196.007 71.895C195.988 71.1812 195.779 70.4854 195.4 69.8799L179.216 44H180C180.724 43.9996 181.434 43.803 182.054 43.431C182.675 43.0591 183.183 42.5258 183.524 41.888C183.866 41.2501 184.028 40.5315 183.993 39.8088C183.959 39.0861 183.729 38.3863 183.328 37.784L159.328 1.78395Z" fill="#0FA958"/>
<path d="M254.912 16.561C254.592 16.0816 254.159 15.6886 253.651 15.4167C253.143 15.1449 252.576 15.0027 252 15.0027C251.424 15.0027 250.857 15.1449 250.349 15.4167C249.841 15.6886 249.408 16.0816 249.088 16.561L228.088 48.061C227.737 48.588 227.536 49.2004 227.506 49.8327C227.475 50.4651 227.617 51.0938 227.916 51.652C228.215 52.2101 228.66 52.6767 229.203 53.0022C229.746 53.3276 230.367 53.4996 231 53.5H231.686L217.532 76.145C217.201 76.6748 217.017 77.2836 217.001 77.9081C216.985 78.5327 217.136 79.1502 217.439 79.6967C217.741 80.2431 218.185 80.6985 218.723 81.0156C219.262 81.3327 219.875 81.5 220.5 81.5H221.837L210.371 104.432C210.103 104.966 209.977 105.559 210.003 106.155C210.03 106.751 210.208 107.331 210.522 107.839C210.835 108.347 211.274 108.766 211.795 109.057C212.316 109.347 212.903 109.5 213.5 109.5H245V127H259V109.5H290.5C291.097 109.5 291.684 109.347 292.205 109.057C292.726 108.766 293.164 108.347 293.478 107.839C293.791 107.331 293.97 106.751 293.996 106.155C294.023 105.559 293.896 104.966 293.629 104.432L282.17 81.5H283.507C284.132 81.5 284.745 81.3327 285.283 81.0156C285.822 80.6985 286.265 80.2431 286.568 79.6967C286.871 79.1502 287.022 78.5327 287.006 77.9081C286.989 77.2836 286.806 76.6748 286.475 76.145L272.314 53.5H273C273.633 53.4996 274.254 53.3276 274.797 53.0022C275.34 52.6767 275.785 52.2101 276.084 51.652C276.382 51.0938 276.524 50.4651 276.494 49.8327C276.464 49.2004 276.263 48.588 275.912 48.061L254.912 16.561Z" fill="#0FA958"/>
<path d="M58.9119 17.561C58.5923 17.0816 58.1592 16.6886 57.6512 16.4167C57.1433 16.1449 56.576 16.0027 55.9999 16.0027C55.4237 16.0027 54.8565 16.1449 54.3485 16.4167C53.8405 16.6886 53.4075 17.0816 53.0879 17.561L32.0879 49.061C31.7371 49.588 31.5359 50.2004 31.5057 50.8327C31.4754 51.4651 31.6173 52.0938 31.9161 52.652C32.2149 53.2101 32.6595 53.6767 33.2026 54.0022C33.7456 54.3276 34.3668 54.4996 34.9999 54.5H35.6859L21.5319 77.145C21.2008 77.6748 21.0175 78.2836 21.0011 78.9081C20.9847 79.5327 21.1358 80.1502 21.4386 80.6967C21.7415 81.2431 22.1851 81.6985 22.7234 82.0156C23.2617 82.3327 23.8751 82.5 24.4999 82.5H25.8369L14.3709 105.432C14.1035 105.966 13.977 106.559 14.0034 107.155C14.0299 107.751 14.2083 108.331 14.5219 108.839C14.8354 109.347 15.2736 109.766 15.7949 110.057C16.3161 110.347 16.903 110.5 17.4999 110.5H48.9999V128H62.9999V110.5H94.4999C95.0967 110.5 95.6837 110.347 96.2049 110.057C96.7261 109.766 97.1643 109.347 97.4779 108.839C97.7914 108.331 97.9699 107.751 97.9963 107.155C98.0228 106.559 97.8963 105.966 97.6289 105.432L86.1699 82.5H87.5069C88.1317 82.5 88.745 82.3327 89.2833 82.0156C89.8216 81.6985 90.2653 81.2431 90.5681 80.6967C90.871 80.1502 91.0221 79.5327 91.0057 78.9081C90.9893 78.2836 90.806 77.6748 90.4749 77.145L76.3139 54.5H76.9999C77.633 54.4996 78.2541 54.3276 78.7972 54.0022C79.3402 53.6767 79.7848 53.2101 80.0837 52.652C80.3825 52.0938 80.5243 51.4651 80.4941 50.8327C80.4638 50.2004 80.2626 49.588 79.9119 49.061L58.9119 17.561Z" fill="#0FA958"/>
<path d="M209.664 14.892C209.481 14.6181 209.234 14.3935 208.944 14.2382C208.653 14.0829 208.329 14.0016 208 14.0016C207.671 14.0016 207.347 14.0829 207.056 14.2382C206.766 14.3935 206.519 14.6181 206.336 14.892L194.336 32.892C194.136 33.1932 194.021 33.5431 194.003 33.9045C193.986 34.2658 194.067 34.6251 194.238 34.944C194.409 35.263 194.663 35.5296 194.973 35.7156C195.283 35.9015 195.638 35.9998 196 36H196.392L188.304 48.94C188.115 49.2428 188.01 49.5907 188.001 49.9475C187.991 50.3044 188.078 50.6573 188.251 50.9696C188.424 51.2818 188.677 51.5421 188.985 51.7233C189.292 51.9045 189.643 52 190 52H190.764L184.212 65.104C184.059 65.409 183.987 65.7479 184.002 66.0886C184.017 66.4293 184.119 66.7605 184.298 67.0507C184.477 67.3409 184.728 67.5805 185.026 67.7466C185.323 67.9128 185.659 68 186 68H204V78H212V68H230C230.341 68 230.676 67.9128 230.974 67.7466C231.272 67.5805 231.522 67.3409 231.702 67.0507C231.881 66.7605 231.983 66.4293 231.998 66.0886C232.013 65.7479 231.941 65.409 231.788 65.104L225.24 52H226.004C226.361 52 226.711 51.9045 227.019 51.7233C227.327 51.5421 227.58 51.2818 227.753 50.9696C227.926 50.6573 228.013 50.3044 228.003 49.9475C227.994 49.5907 227.889 49.2428 227.7 48.94L219.608 36H220C220.362 35.9998 220.717 35.9015 221.027 35.7156C221.337 35.5296 221.591 35.263 221.762 34.944C221.933 34.6251 222.014 34.2658 221.997 33.9045C221.979 33.5431 221.864 33.1932 221.664 32.892L209.664 14.892Z" fill="#0FA958"/>
</svg>
